<!DOCTYPE svg PUBLIC "-//W3C//DTD SVG 1.1//EN" "http://www.w3.org/Graphics/SVG/1.1/DTD/svg11.dtd">
<!-- Uploaded to: SVG Repo, www.svgrepo.com, Transformed by: SVG Repo Mixer Tools -->
<svg height="64px" width="64px" version="1.1" id="Layer_1" xmlns="http://www.w3.org/2000/svg" xmlns:xlink="http://www.w3.org/1999/xlink" viewBox="-51.2 -51.2 614.40 614.40" xml:space="preserve" fill="" transform="rotate(0)matrix(1, 0, 0, 1, 0, 0)" stroke="">
<g id="SVGRepo_bgCarrier" stroke-width="0">
<rect x="-51.2" y="-51.2" width="614.40" height="614.40" rx="0" fill="#0d6efd" strokewidth="0"/>
</g>
<g id="SVGRepo_tracerCarrier" stroke-linecap="round" stroke-linejoin="round"/>
<g id="SVGRepo_iconCarrier"> <g> <g> <g> <path style="fill:#FFFFFF;" d="M495.658,469.081V276.692c0-152.485-124.166-276.651-276.651-276.651 c-11.981,0-21.784,9.803-21.784,21.784v156.841H41.764c-1.161-0.104-2.349-0.11-3.56,0l-17.427,1.089 c-11.981,0-21.784,10.892-20.694,21.784c0.941,10.353,8.392,18.253,17.427,20.212v247.077 c-9.912,2.033-17.427,10.852-17.427,21.342c0,11.981,9.803,21.784,21.784,21.784h17.427h179.714h254.867h16.338 c11.981,0,21.784-9.803,21.784-21.784C511.996,480.069,505.026,471.515,495.658,469.081z M452.091,276.692v191.695h-211.3V200.45 c0-2.361-0.386-4.636-1.089-6.77V43.608C358.422,54.5,452.091,154.704,452.091,276.692z M197.224,468.387h-46.835v-88.223 c0-11.981-9.803-21.784-21.784-21.784s-21.784,9.803-21.784,21.784v88.223H59.987c0-2.159,0-246.154,0-246.154h137.236V468.387z"/> <path style="fill:#FFFFFF;" d="M346.441,223.323c11.981,0,21.784-9.803,21.784-21.784v-7.624 c0-11.981-9.803-21.784-21.784-21.784c-11.981,0-21.784,9.803-21.784,21.784v7.624 C324.657,213.52,334.46,223.323,346.441,223.323z"/> <path style="fill:#FFFFFF;" d="M346.441,323.527c11.981,0,21.784-8.713,21.784-21.784v-7.624 c0-11.981-9.803-21.784-21.784-21.784c-11.981,0-21.784,9.803-21.784,21.784v7.624 C324.657,313.724,334.46,323.527,346.441,323.527z"/> <path style="fill:#FFFFFF;" d="M346.441,424.82c11.981,0,21.784-8.713,21.784-21.784v-7.624c0-11.981-9.803-21.784-21.784-21.784 c-11.981,0-21.784,9.803-21.784,21.784v7.624C324.657,415.018,334.46,424.82,346.441,424.82z"/> </g> </g> </g> </g>
</svg>