<!DOCTYPE svg PUBLIC "-//W3C//DTD SVG 1.1//EN" "http://www.w3.org/Graphics/SVG/1.1/DTD/svg11.dtd">
<!-- Uploaded to: SVG Repo, www.svgrepo.com, Transformed by: SVG Repo Mixer Tools -->
<svg fill="#FFFFFF" height="64px" width="64px" version="1.1" id="Capa_1" xmlns="http://www.w3.org/2000/svg" xmlns:xlink="http://www.w3.org/1999/xlink" viewBox="-99 -99 396.00 396.00" xml:space="preserve" stroke="#FFFFFF" stroke-width="0.00198">
<g id="SVGRepo_bgCarrier" stroke-width="0" transform="translate(0,0), scale(1)">
<rect x="-99" y="-99" width="396.00" height="396.00" rx="0" fill="#0d6efd" strokewidth="0"/>
</g>
<g id="SVGRepo_tracerCarrier" stroke-linecap="round" stroke-linejoin="round" stroke="#CCCCCC" stroke-width="0.396"/>
<g id="SVGRepo_iconCarrier"> <g> <path d="M0,92.905h48.024c-0.821,35-10.748,38.973-23.216,40.107L20,133.608v38.486l5.542-0.297 c16.281-0.916,34.281-3.851,46.29-18.676C82.359,140.125,87,118.893,87,86.3V25.905H0V92.905z"/> <path d="M111,25.905v67h47.383c-0.821,35-10.427,38.973-22.895,40.107L131,133.608v38.486l5.222-0.297 c16.281-0.916,34.442-3.851,46.451-18.676C193.199,140.125,198,118.893,198,86.3V25.905H111z"/> </g> </g>
</svg>