<svg width="17" height="17" viewBox="0 0 17 17" fill="none" xmlns="http://www.w3.org/2000/svg">
<g id="Clock">
<rect id="Rectangle" opacity="0.01" x="16.3051" y="16.6739" width="16" height="16" transform="rotate(180 16.3051 16.6739)" fill="black"/>
<path id="Shape" fill-rule="evenodd" clip-rule="evenodd" d="M1.63843 8.67388C1.63843 4.99199 4.6232 2.00722 8.30509 2.00722C10.0732 2.00722 11.7689 2.7096 13.0191 3.95984C14.2694 5.21008 14.9718 6.90577 14.9718 8.67388C14.9718 12.3558 11.987 15.3406 8.30509 15.3406C4.6232 15.3406 1.63843 12.3558 1.63843 8.67388ZM8.30509 9.34055H10.9718C11.34 9.34055 11.6384 9.04207 11.6384 8.67388C11.6384 8.30569 11.34 8.00722 10.9718 8.00722H8.97176V6.00722C8.97176 5.63903 8.67328 5.34055 8.30509 5.34055C7.9369 5.34055 7.63843 5.63903 7.63843 6.00722V8.67388C7.63843 9.04207 7.9369 9.34055 8.30509 9.34055Z" fill="#8BACD9"/>
</g>
</svg>
